<?xml version="1.0" encoding="utf-8"?>
<!-- Generator: Adobe Illustrator 22.0.1, SVG Export Plug-In . SVG Version: 6.00 Build 0)  -->
<svg version="1.1" id="图层_1" xmlns="http://www.w3.org/2000/svg" xmlns:xlink="http://www.w3.org/1999/xlink" x="0px" y="0px"
	 viewBox="0 0 32 32" style="enable-background:new 0 0 32 32;" xml:space="preserve">
<style type="text/css">
	.st0{fill:#FFFFFF;}
</style>
<g id="Flat_copy_5">
	<path d="M16,0C7.2,0,0,7.2,0,16s7.2,16,16,16s16-7.2,16-16S24.8,0,16,0z"/>
	<g>
		<path class="st0" d="M14,15.5c0,0,2-0.2,2-2.6s-1.4-3.6-3.5-3.6H5.3v13.4h7.4c0,0,3.7,0.1,3.7-4.1C16.4,18.7,16.6,15.5,14,15.5z
			 M8,11.3h3.7c0,0,1.3,0,1.3,1.7s-1.3,1.7-1.3,1.7H8V11.3z M11.9,20.7H8v-4.1H12c0,0,2,0,2,2S12.3,20.7,11.9,20.7z"/>
		<path class="st0" d="M22,12.7c-5.1,0-5,5-5,5s-0.4,5,5,5c0,0,4.7,0,4.7-4.1H24c0,0,0,2-2,2c0,0-2,0-2-2.7h6.7
			C26.7,16.7,26.7,12.7,22,12.7z M20.1,16.7c0,0,0-2,2-2s2,2,2,2H20.1z"/>
		<path class="st0" d="M19.3,10.6h5.4V12h-5.4V10.6z"/>
	</g>
</g>
</svg>
