<?xml version="1.0" encoding="utf-8"?>
<!-- Generator: Adobe Illustrator 22.0.1, SVG Export Plug-In . SVG Version: 6.00 Build 0)  -->
<svg version="1.1" id="图层_1" xmlns="http://www.w3.org/2000/svg" xmlns:xlink="http://www.w3.org/1999/xlink" x="0px" y="0px"
	 viewBox="0 0 32 32" style="enable-background:new 0 0 32 32;" xml:space="preserve">
<title>Behance</title>
<desc>Created with Sketch.</desc>
<g>
	<path d="M12,16.6H8v4.1h3.9c0.4,0,2.1-0.1,2.1-2.1S12,16.6,12,16.6z"/>
	<path d="M22.1,14.7c-2,0-2,2-2,2h4C24.1,16.7,24.1,14.7,22.1,14.7z"/>
	<path d="M16,0C7.2,0,0,7.2,0,16s7.2,16,16,16s16-7.2,16-16S24.8,0,16,0z M19.3,10.6h5.4V12h-5.4V10.6z M16.4,18.6
		c0,4.2-3.7,4.1-3.7,4.1H5.3V9.3h7.2c2.1,0,3.5,1.2,3.5,3.6c0,2.4-2,2.6-2,2.6C16.6,15.5,16.4,18.7,16.4,18.6z M22,20.6c2,0,2-2,2-2
		h2.7c0,4.1-4.7,4.1-4.7,4.1c-5.4,0-5-5-5-5s-0.1-5,5-5c4.7,0,4.7,4,4.7,5.2H20C20,20.6,22,20.6,22,20.6z"/>
	<path d="M13,13c0-1.7-1.3-1.7-1.3-1.7H8v3.4h3.7C11.7,14.7,13,14.7,13,13z"/>
</g>
</svg>
