<?xml version="1.0" encoding="utf-8"?>
<!-- Generator: Adobe Illustrator 25.0.0, SVG Export Plug-In . SVG Version: 6.00 Build 0)  -->
<svg version="1.1" xmlns="http://www.w3.org/2000/svg" xmlns:xlink="http://www.w3.org/1999/xlink" x="0px" y="0px"
	 viewBox="0 0 200 200" style="enable-background:new 0 0 200 200;" xml:space="preserve">
<g>
	<path d="M75,103.8H50v25.6h24.4c2.5,0,13.1-0.6,13.1-13.1S75,103.8,75,103.8z"/>
	<path d="M138.1,91.9c-12.5,0-12.5,12.5-12.5,12.5h25C150.6,104.4,150.6,91.9,138.1,91.9z"/>
	<path d="M159.9,0H40.1C18,0,0,18,0,40.1v119.7C0,182,18,200,40.1,200h119.7c22.2,0,40.1-18,40.1-40.1V40.1C200,18,182,0,159.9,0z
		 M120.6,66.2h33.8V75h-33.8V66.2z M102.5,116.2c0,26.2-23.1,25.6-23.1,25.6H33.1V58.1h45c13.1,0,21.9,7.5,21.9,22.5
		S87.5,96.9,87.5,96.9C103.8,96.9,102.5,116.9,102.5,116.2z M137.5,128.8c12.5,0,12.5-12.5,12.5-12.5h16.9
		c0,25.6-29.4,25.6-29.4,25.6c-33.8,0-31.2-31.2-31.2-31.2s-0.6-31.2,31.2-31.2c29.4,0,29.4,25,29.4,32.5H125
		C125,128.8,137.5,128.8,137.5,128.8z"/>
	<path d="M81.2,81.2c0-10.6-8.1-10.6-8.1-10.6H50v21.2h23.1C73.1,91.9,81.2,91.9,81.2,81.2z"/>
</g>
</svg>
