<?xml version="1.0" encoding="utf-8"?>
<!-- Generator: Adobe Illustrator 25.0.0, SVG Export Plug-In . SVG Version: 6.00 Build 0)  -->
<svg version="1.1" id="图层_1" xmlns="http://www.w3.org/2000/svg" xmlns:xlink="http://www.w3.org/1999/xlink" x="0px" y="0px"
	 viewBox="0 0 1024 1024" style="enable-background:new 0 0 1024 1024;" xml:space="preserve">
<style type="text/css">
	.st0{fill:#EF5694;}
	.st1{fill:#C32361;}
</style>
<path class="st0" d="M34.5,512c0,264.1,214.1,478.2,478.2,478.2S990.9,776.1,990.9,512S776.8,33.8,512.7,33.8S34.5,247.9,34.5,512
	L34.5,512z"/>
<path class="st1" d="M512.7,0C230,0,0,229.7,0,512s230,512,512.7,512s512.7-229.7,512.7-512S795.4,0,512.7,0z M850.2,241.8
	c58.4,72.3,94,164.1,95.8,263.8c-19.6-3.9-101.8-19.2-200.5-19.2c-31.7,0-65.2,1.8-98.6,5.7c-2.8-6.8-5.7-13.9-8.5-20.6
	c-8.5-20.3-18.2-40.6-27.8-60.5C761.9,347.9,834.9,261.3,850.2,241.8L850.2,241.8z M512.7,80.1c109.3,0,209,40.6,285.6,107.5
	c-12.1,16.4-77.6,98.3-223.6,153.5C507,217.5,433,115,415.5,91.1C447.4,83.8,480,80.1,512.7,80.1z M326.5,122.1
	c15,20.7,89,123.9,158.4,246.7c-186.2,48.8-351.4,52-391.7,52H89C118.2,288.8,207.2,179.1,326.5,122.1L326.5,122.1z M79.4,512.7
	c0-3.6,0-7.1,0.4-10.7h11.4c53.8,0,240.3-4.6,432.6-61.6c11.8,22.8,22.8,45.9,33.1,69.1c-5,1.4-9.6,2.8-14.2,4.3
	c-216.8,70.1-335.8,255.3-353.9,285.6C120.7,722.8,79.4,622.7,79.4,512.7L79.4,512.7z M512.7,945.3c-99.3,0-190.8-33.5-264.2-90.1
	C261,831,350.7,669.4,587.8,586.8h0.4c59.5,154.9,84.7,284.8,91.5,325.1C628.4,933.2,572.2,945.3,512.7,945.3L512.7,945.3z
	 M758,869.1c-5.7-33.5-29.2-155.2-83-303.7c30.3-4.6,59.5-6.4,87.2-6.4c90.4,0,161.3,19.9,177.7,24.9
	C920.4,701.8,852.7,803.6,758,869.1L758,869.1z"/>
</svg>
