<?xml version="1.0" encoding="UTF-8"?><svg xmlns="http://www.w3.org/2000/svg" xmlns:xlink="http://www.w3.org/1999/xlink" version="1.1" x="0px" y="0px" viewBox="0 0 32 32" xml:space="preserve"><g id="Flat_copy_5"><path d="M16 0C7.163 0 0 7.163 0 16c0 8.836 7.163 16 16 16s16-7.164 16-16c0-8.837-7.163-16-16-16z"/><path fill="#FFF" d="M22.644 10.534c-.016.023-1.396 2.017-4.793 3.404a27.017 27.017 0 0 1 .758 1.694c2.956-.372 5.868.253 5.992.279a8.566 8.566 0 0 0-1.957-5.377zm-3.511 6.456c1.128 3.101 1.587 5.627 1.675 6.146a8.607 8.607 0 0 0 3.687-5.771c-.178-.058-2.585-.82-5.362-.375zm.226 6.932c-.127-.752-.627-3.387-1.837-6.533l-.058.019c-5.076 1.769-6.734 5.335-6.752 5.375a8.587 8.587 0 0 0 8.647 1.139zm-2.17-11.266c3.246-1.217 4.472-3.082 4.493-3.114A8.566 8.566 0 0 0 16 7.397c-.699 0-1.378.085-2.027.241.128.173 1.744 2.317 3.216 5.018zm-.255 3.307a29.504 29.504 0 0 0-.698-1.462c-4.43 1.326-8.681 1.231-8.833 1.225-.002.092-.007.181-.007.274 0 2.21.834 4.226 2.204 5.748-.003-.004 2.352-4.181 6.995-5.683.112-.036.226-.07.339-.102zm8.935-1.991a10.114 10.114 0 0 1 0 4.056c-.133.649-.33 1.285-.587 1.894a10.137 10.137 0 0 1-3.649 4.432c-.539.363-1.115.674-1.712.928a10.094 10.094 0 0 1-3.922.793 10.145 10.145 0 0 1-3.922-.793 10.294 10.294 0 0 1-1.712-.928 10.143 10.143 0 0 1-3.648-4.432 10.09 10.09 0 0 1-.589-1.894 10.272 10.272 0 0 1 .001-4.057 10.04 10.04 0 0 1 2.747-5.096 10.133 10.133 0 0 1 3.201-2.159 9.93 9.93 0 0 1 1.893-.587 10.137 10.137 0 0 1 5.952.588c.597.253 1.173.566 1.712.931.533.361 1.035.774 1.491 1.228a10.137 10.137 0 0 1 2.158 3.203c.257.607.454 1.244.586 1.893zm-10.345-.796a51.643 51.643 0 0 0-3.195-4.958 8.615 8.615 0 0 0-4.749 6.009c.227.001 3.813.046 7.944-1.051z"/></g><metadata><rdf:RDF xmlns:rdf="http://www.w3.org/1999/02/22-rdf-syntax-ns#" xmlns:rdfs="http://www.w3.org/2000/01/rdf-schema#" xmlns:dc="http://purl.org/dc/elements/1.1/"><rdf:Description about="https://iconscout.com/legal#licenses" dc:title="online,social,media,dribbble" dc:description="online,social,media,dribbble" dc:publisher="Iconscout" dc:date="2017-09-15" dc:format="image/svg+xml" dc:language="en"><dc:creator><rdf:Bag><rdf:li>Epicflaticon by Alfredo</rdf:li></rdf:Bag></dc:creator></rdf:Description></rdf:RDF></metadata></svg>