<?xml version="1.0" encoding="utf-8"?>
<!-- Generator: Adobe Illustrator 22.0.1, SVG Export Plug-In . SVG Version: 6.00 Build 0)  -->
<svg version="1.1" id="图层_1" xmlns="http://www.w3.org/2000/svg" xmlns:xlink="http://www.w3.org/1999/xlink" x="0px" y="0px"
	 viewBox="0 0 20 20" style="enable-background:new 0 0 20 20;" xml:space="preserve">
<title>github [#142]</title>
<path id="github-_x5B__x23_142_x5D_" d="M10,0c5.5,0,10,4.6,10,10.3c0,4.5-2.9,8.4-6.8,9.7c-0.5,0.1-0.7-0.2-0.7-0.5
	c0-0.3,0-1.4,0-2.8c0-1-0.3-1.6-0.7-1.9c2.2-0.3,4.6-1.1,4.6-5.1c0-1.1-0.4-2-1-2.8c0.1-0.3,0.4-1.3-0.1-2.7c0,0-0.8-0.3-2.7,1.1
	C11.7,5.1,10.8,5,10,5C9.2,5,8.3,5.1,7.5,5.3C5.6,4,4.7,4.3,4.7,4.3C4.2,5.7,4.5,6.7,4.6,7c-0.6,0.7-1,1.6-1,2.8
	c0,3.9,2.3,4.8,4.6,5.1c-0.3,0.3-0.5,0.7-0.6,1.4c-0.6,0.3-2,0.7-2.9-0.9c0,0-0.5-1-1.5-1.1c0,0-1,0-0.1,0.6c0,0,0.7,0.3,1.1,1.5
	c0,0,0.6,1.8,3.4,1.2c0,0.9,0,1.7,0,1.9c0,0.3-0.2,0.6-0.7,0.5c-4-1.4-6.8-5.2-6.8-9.7C0,4.6,4.5,0,10,0"/>
</svg>
