<?xml version="1.0" encoding="utf-8"?>
<!-- Generator: Adobe Illustrator 22.0.1, SVG Export Plug-In . SVG Version: 6.00 Build 0)  -->
<svg version="1.1" id="Layer_1" xmlns="http://www.w3.org/2000/svg" xmlns:xlink="http://www.w3.org/1999/xlink" x="0px" y="0px"
	 viewBox="0 0 128 128" style="enable-background:new 0 0 128 128;" xml:space="preserve">
<style type="text/css">
	.st0{fill:#DD4B39;}
</style>
<title>Artboard 23</title>
<path class="st0" d="M64,0C28.7,0,0,28.7,0,64c0,35.3,28.7,64,64,64s64-28.7,64-64C128,28.7,99.3,0,64,0z M72,65
	c0,13.5-8.4,23-22,23c-13.3,0-24-10.7-24-24s10.7-24,24-24c6.4,0,11.2,2.8,15.3,6.6L59,53c-2.3-2.5-5.6-4-9-4c-8.3,0-15,6.7-15,15
	c0,8.3,6.7,15,15,15c9.3,0,12.5-6.5,13-10H49v-8h23C72.1,62.3,72.1,63.7,72,65z M102,69h-8v8h-8v-8h-8v-8h8v-8h8v8h8V69z"/>
</svg>
