<?xml version="1.0" encoding="utf-8"?>
<!-- Generator: Adobe Illustrator 22.0.1, SVG Export Plug-In . SVG Version: 6.00 Build 0)  -->
<svg version="1.1" id="图层_1" xmlns="http://www.w3.org/2000/svg" xmlns:xlink="http://www.w3.org/1999/xlink" x="0px" y="0px"
	 viewBox="0 0 32 32" style="enable-background:new 0 0 32 32;" xml:space="preserve">
<path d="M16,0C7.2,0,0,7.2,0,16s7.2,16,16,16s16-7.2,16-16C32,7.2,24.8,0,16,0z M24,12.4c0,0.2,0,0.3,0,0.5c0,5.2-4,11.2-11.2,11.2
	c-2.2,0-4.3-0.7-6-1.8c2.1,0.3,4.2-0.3,5.8-1.6c-1.7,0-3.2-1.1-3.7-2.7c0.6,0.1,1.2,0.1,1.8-0.1c-1.8-0.4-3.2-2-3.2-3.9v0
	c0.5,0.3,1.2,0.5,1.8,0.5c-1.1-0.7-1.8-2-1.8-3.3c0-0.7,0.2-1.4,0.5-2c2,2.5,5,4,8.1,4.1c-0.5-2.1,0.8-4.2,2.9-4.7
	c1.4-0.3,2.8,0.1,3.8,1.1c0.9-0.2,1.7-0.5,2.5-1c-0.3,0.9-0.9,1.7-1.7,2.2c0.8-0.1,1.5-0.3,2.3-0.6C25.4,11.2,24.7,11.9,24,12.4z"/>
</svg>
