<?xml version="1.0" encoding="utf-8"?>
<!-- Generator: Adobe Illustrator 23.1.1, SVG Export Plug-In . SVG Version: 6.00 Build 0)  -->
<svg version="1.1" id="图层_1" xmlns="http://www.w3.org/2000/svg" xmlns:xlink="http://www.w3.org/1999/xlink" x="0px" y="0px"
	 viewBox="0 0 72 72" style="enable-background:new 0 0 72 72;" xml:space="preserve">
<style type="text/css">
	.st0{fill:#2A2A2A;}
	.st1{display:none;fill:#FFFFFF;}
	.st2{opacity:0.2;fill:#28CA41;enable-background:new    ;}
	.st3{fill:#28CA41;}
	.st4{opacity:0.2;fill:#FFBD2E;enable-background:new    ;}
	.st5{fill:#FFBD2E;}
	.st6{opacity:0.2;fill:#FF6058;enable-background:new    ;}
	.st7{fill:#FF6058;}
</style>
<title>New Logo</title>
<g id="Group">
	<path id="Rectangle" class="st0" d="M59,0c7.2,0,13,5.8,13,13v46c0,7.2-5.8,13-13,13H13C5.8,72,0,66.2,0,59V13C0,5.8,5.8,0,13,0H59
		z M59.8,7H12.2C9.4,7,7.1,9.2,7,12v0.2v47.6c0,2.8,2.2,5.1,5,5.2h0.2h47.6c2.8,0,5.1-2.2,5.2-5v-0.2V12.2c0-2.8-2.2-5.1-5-5.2H59.8
		z"/>
	<path id="Path" class="st1" d="M59,8H13c-2.7,0-4.9,2.1-5,4.8V13v46c0,2.7,2.1,4.9,4.8,5H13h46c2.7,0,4.9-2.1,5-4.8V59V13
		c0-2.7-2.1-4.9-4.8-5H59z"/>
	<g id="Group-5" transform="translate(15.000000, 30.000000)">
		<path id="circle3" class="st2" d="M0,6.4C0.1,2.7,2.5,0,5.8,0C10,0,12,3.2,12,5.4c0,3.7-1.5,6.9-6.8,6.6C2.2,11.8-0.1,9.3,0,6.4
			L0,6.4z"/>
		<path id="circle3-2" class="st3" d="M0,6.4C0.1,2.7,2.5,0,5.8,0C10,0,12,3.2,12,5.4c0,3.7-1.5,6.9-6.8,6.6C2.2,11.8-0.1,9.3,0,6.4
			z M6,9c2.1,0,2.9-1.5,3-3.1c0.1-1.5-0.7-2.2-1.5-2.6C6.4,2.8,5,2.9,4.1,3.8C3.3,4.6,2.9,5.5,3,6.6C3.3,8.2,4.2,9,6,9L6,9z"/>
	</g>
	<g transform="translate(30.000000, 30.000000)">
		<path class="st4" d="M0,6.4C0.1,2.7,2.5,0,5.8,0C10,0,12,3.2,12,5.4c0,3.7-1.5,6.9-6.8,6.6C2.2,11.8-0.1,9.3,0,6.4L0,6.4z"/>
		<path class="st5" d="M0,6.4C0.1,2.7,2.5,0,5.8,0C10,0,12,3.2,12,5.4c0,3.7-1.5,6.9-6.8,6.6C2.2,11.8-0.1,9.3,0,6.4z M6,9
			c2.1,0,2.9-1.5,3-3.1c0.1-1.5-0.7-2.2-1.5-2.6C6.4,2.8,5,2.9,4.1,3.8C3.3,4.6,2.9,5.5,3,6.6C3.3,8.2,4.2,9,6,9L6,9z"/>
	</g>
	<g transform="translate(45.000000, 30.000000)">
		<path class="st6" d="M0,6.4C0.1,2.7,2.5,0,5.8,0C10,0,12,3.2,12,5.4c0,3.7-1.5,6.9-6.8,6.6C2.2,11.8-0.1,9.3,0,6.4L0,6.4z"/>
		<path class="st7" d="M0,6.4C0.1,2.7,2.5,0,5.8,0C10,0,12,3.2,12,5.4c0,3.7-1.5,6.9-6.8,6.6C2.2,11.8-0.1,9.3,0,6.4z M6,9
			c2.1,0,2.9-1.5,3-3.1c0.1-1.5-0.7-2.2-1.5-2.6C6.4,2.8,5,2.9,4.1,3.8C3.3,4.6,2.9,5.5,3,6.6C3.3,8.2,4.2,9,6,9L6,9z"/>
	</g>
</g>
</svg>
