<svg xmlns="http://www.w3.org/2000/svg" viewBox="0 0 308.04 217.09"><defs><style>.cls-1{fill:#3a3a3a;}</style></defs><title>myLogo</title><g id="图层_2" data-name="图层 2"><g id="svg_layout"><g id="myLogo"><path id="boxFrame" class="cls-1" d="M306.85,71.68c.5-19.47,1.23-42.35,1.18-61.85,0-7.59-7.76-8.8-9.15-8.89-7.45-.48-6.17,0-13.63-.1C261.78.58,245,.36,236.75.42c-17.84.13-27.25-1-55,0-13.69.49-23.52-.54-37.56,0-11.74.45-36.31-.23-63.48,1-3.42.16-8.59.62-11.93,2.65C58.62,10.23,48,17.52,41.4,23.85s-13,10.4-18.89,15.23c-3.92,3.24-7.79,7-12,10C7.18,51.5,1.27,55.48.18,60.61c-.6,2.8.51,5.24.67,7.86C2,87.59,2.13,106.71,2.43,125.85c.23,14.49.66,29,1.4,43.49.73,14-.53,25.78-1.53,39.86C2.07,212.52,4,216.45,7,216.49c5.54.07,44.41.89,53.11.5,10.6-.47,53.42-.06,60.31,0,12.41.11,44.14,0,50.9,0,22.54.06,35.35-.48,51.8,0,2,0,13.94.44,20-1.16,5.39-1.43,15-16.9,18.71-21.36,6.81-8.27,16.79-21.77,22.32-28.73,3.42-4.3,9.89-13.26,17.6-22.46,4.53-5.41,5.23-9.95,5.23-15.26C307,110.94,306.41,88.76,306.85,71.68Zm-72.18,82.95C234,170,233.5,183.3,233.5,198.81c0,2.61-.81.37-29.09.7-22.6.28-44.26-.88-66.81.64-17,1.14-40.69.41-57.74,1-23.62.85-62.52,0-62.56-1.1-.26-6.26.47-13.67.43-21.46-.08-16-1.36-30.47-1.74-44.33-.63-22.85-1.27-51.33-1.28-58.88,0-1.28-.5-4.76,3.18-4.84,9.83-.2,29.63-.7,42-.45,11.12.22,59.52.18,74.31,0,27.32-.32,36.21,1.19,63.48,0,9-.4,17.61,0,25.22,0,9.14,0,13.2.2,13.2,6.1C236.1,106.94,236.1,124.09,234.67,154.63ZM240.55,52.5c-4.94,1.76-36.07,2.92-54.13,3.5-11,.36-45.74.23-79,1-24.65.59-41.48-.47-66.16.1-8,.19-16.38.5-19.17-.4,8.87-8.07,15.63-12.81,26-22.33,2-1.88,10.79-8.48,16.43-12.82C77.2,11.77,79,11.86,93.37,11.86c19.2,0,39.36,1.15,55.51.64,19.22-.6,45.27,1.23,69.43.24,8.17-.33,60.27,0,67.65,0,10.77-.05,3.65,1.88-2.52,7-3.74,3.11-12.53,9.7-15.52,12.35C256.83,42,245.47,50.74,240.55,52.5Zm54.8,65.19c.08,5.1.49,13.18-5.19,20.44-4.44,5.68-11.89,15.53-18.14,22.88s-23.45,29.9-23.45,28c0-5.81.12-13.42.4-21.26.43-12,1.18-50.35,1.2-51.26.34-13.72.08-24.06,0-41.79,0-9.33,3.05-12.29,8.85-17.33,7.42-6.45,13.17-10.24,17.7-14.09,6.36-5.42,13.07-11.1,18.74-16.17,0,23.39-.85,30.36-.13,54C295.72,93.59,295.13,105.1,295.35,117.69Z"/><path id="circle1" class="cls-1" d="M85.29,126.41c1.81,7.05-.56,15.54-4.06,20.38-5.65,7.77-13,9.33-19.19,8.24-6.94-1.23-12.58-6-13.78-12.37-1.75-9.33.4-22,12.36-27.93C71.55,109.58,83.47,119.37,85.29,126.41Zm-9.63,2.76c-.9-2.45-4.29-5.08-8.6-5.08a8.22,8.22,0,0,0-7.74,5.06c-1.71,4-2.44,9.51-.23,13,1.48,2.32,4.93,3.38,7.19,3.33,2.61-.05,5.76-.82,7.56-3.53C76,138.66,76.71,132.62,75.66,129.17Z"/><path id="circle2" class="cls-1" d="M140.35,144.13c-5.56,10.25-19.44,14.17-29.18,7.64a13.08,13.08,0,0,1-5.6-10.2c-.88-10.56,3.28-19,11.33-25.22,5-3.8,11.63-3,17-1.11,4.56,1.6,7.52,6,8.8,11.25C143.9,131.27,142.42,140.32,140.35,144.13Zm-5.9-9c.78-3.38-.25-7.28-1.11-8.14a10.48,10.48,0,0,0-9.72-3.08c-2.75.46-4.76,2.79-6.15,5-2.16,3.46-3,6.47-1.57,10.95,1,3,2.73,4.67,5.35,5.27,4.4.31,6.49-.87,8.22-2.19A14.89,14.89,0,0,0,134.45,135.15Z"/><path id="circle3" class="cls-1" d="M162.07,135.73c.25-12.78,8.16-21.81,19-21.87,13.85-.08,20.45,10.92,20.45,18.42-.1,12.75-5,23.42-22.36,22.42A18.41,18.41,0,0,1,162.07,135.73Zm20,11.18c7.62,0,10.47-6.22,10.92-12.47s-2.61-8.91-5.34-10.51a9.94,9.94,0,0,0-12.17,1.82c-2.94,3.51-4.54,7-4,11.45C172.28,143.84,175.82,146.88,182,146.91Z"/></g></g></g></svg>