<?xml version="1.0" encoding="utf-8"?>
<!-- Generator: Adobe Illustrator 22.0.1, SVG Export Plug-In . SVG Version: 6.00 Build 0)  -->
<svg version="1.1" id="图层_1" xmlns="http://www.w3.org/2000/svg" xmlns:xlink="http://www.w3.org/1999/xlink" x="0px" y="0px"
	 viewBox="0 0 30 30" style="enable-background:new 0 0 30 30;" xml:space="preserve">
<style type="text/css">
	.st0{fill:#5694F1;}
	.st1{fill:#35495D;}
</style>
<title>logo</title>
<desc>Created with Sketch.</desc>
<path id="Oval-Copy-2" class="st0" d="M13.8,28.9l6.7-14.8c3.2,6.3,5,10.3,5.5,12c2.5-2.7,4-6.3,4-10.2c0-8.3-6.7-15.1-15-15.1
	S0,7.5,0,15.9c0,3.9,1.5,7.5,3.9,10.1c1.1-3.2,2.4-6.6,3.8-10.2L13.8,28.9z"/>
<path id="Path" class="st1" d="M13.1,29.5l1.3,0c0.2,0,0.3-0.1,0.4-0.2L20.7,16L26,27.5c0.1,0.2,0.3,0.3,0.5,0.3h1.1
	c0.3,0,0.5-0.2,0.5-0.5c0-0.1,0-0.1,0-0.2l-6.3-13.7c-0.1-0.2-0.3-0.3-0.5-0.3l-1.2,0c-0.2,0-0.4,0.1-0.5,0.3l-5.8,13.1L8.7,14.9
	c-0.1-0.2-0.3-0.3-0.5-0.3l-1.2,0c-0.2,0-0.4,0.1-0.5,0.3L1.7,27.1c-0.1,0.3,0,0.5,0.3,0.7c0.1,0,0.1,0,0.2,0h1
	c0.2,0,0.4-0.1,0.5-0.3l4.1-9.8l5,11.6C12.8,29.4,13,29.5,13.1,29.5z"/>
</svg>
