<svg xmlns="http://www.w3.org/2000/svg" viewBox="0 0 288.06 203.94"><defs><style>.cls-1{fill:#454545;}</style></defs><title>资源 3</title><g id="图层_2" data-name="图层 2"><g id="图层_1-2" data-name="图层 1"><path class="cls-1" d="M287,68.52c.47-18.21,1.14-41.48,1.1-59.71,0-7.1-7.26-8.23-8.56-8.32-7-.45-5.76,0-12.74-.09C244.8.16,229.1,0,221.39,0,204.71.13,194,.51,168.1,1.45c-12.8.46-21.15-.5-34.29,0-11,.43-21.13.82-32,.8-25.44-.06-.88-.59-26.29.58-3.2.15-8,.59-11.16,2.48-9.54,5.75-19.48,12.56-25.64,18.48S26.53,33.52,21.05,38c-3.67,3-7.29,6.51-11.22,9.35-3.12,2.26-8.65,6-9.67,10.78-.56,2.62.48,4.9.63,7.35,1,17.88,1.2,35.76,1.48,53.66.21,13.55.62,27.11,1.31,40.67.68,13.1-.5,24.11-1.43,37.27-.22,3.12,1.59,6.79,4.41,6.83,5.19.06,41-.55,49.17-.91,9.92-.44,51-.72,57.46-.66,11.6.1,41.27-.94,47.59-.92,21.08.06,39,.25,54.4.7,1.91,0,11.62.31,13.63-1.92,3.46-3.82,11.51-15,14.95-19.22,6.37-7.73,15.57-18.81,21.15-25,2.23-2.46,10.12-12,17.33-20.57,4.23-5.06,4.89-9.3,4.89-14.26C287.13,105.24,286.54,84.49,287,68.52Zm-65,77.62c.25,14.42-.73,29.1-.73,43.61,0,2.44-2.32.4-28.77.71-21.13.26-42.29-.93-63.38.49C113.13,192,93.13,192.44,77.18,193c-22.09.79-61.56-1-61.6-2-.25-5.85.07-15.08,0-22.36-.08-14.94-1.27-28.5-1.63-41.46-.59-21.37-1.73-50.76-1.73-57.82,0-4.93,28.46-2,43.76-1.73,10.4.21,55.65-2,69.48-2.21,25.55-.3,34.77.17,60.27-.94,8.43-.37,19.25-.81,26.37-.82,8.54,0,11.12,0,11.12,5.51C223.25,97.89,221.41,117.38,221.92,146.14Zm3-95.56c-4.62,1.65-33.73,2.73-50.62,3.28-10.31.33-42.78.21-73.91,1-23.06.55-38.8-.44-61.88.09-7.48.18-17.79.47-20.4-.38,8.3-7.54,14.62-12,24.27-20.87,1.9-1.76,10.09-7.94,15.37-12C69.71,12.5,71.7,11.22,85.12,11.22c17.95,0,39.27-.79,54.38-1.27,18-.56,42.41.3,65-.63,7.64-.31,56.36-1,63.26-1,10.07-.05,4,5.86,1.37,8-3.51,2.91-7.39,6.11-10.19,8.59C248.57,34.17,229.55,48.94,225,50.58Zm53.79,64.53c.08,4.77,1.45,6.82-3.86,13.61-4.15,5.31-16.18,18.08-21.15,24.56-5.51,7.18-22.42,27.93-23.38,26.9-1.24-1.32.76-13.68,1-21,.39-11.19.73-27.2.75-28,.32-12.83,1-23.52,1-33.4,0-9.36.32-14.53.27-31.11,0-8.73,3.9-10,9.63-14.34,6.26-4.73,14.19-11.4,18.42-15,5.95-5.07,11.82-11.75,17.12-16.48.82,21.77-.59,33.55.08,55.66C279,88.16,278.54,103.33,278.74,115.11Z"/><path class="cls-1" d="M79.76,119.7c1.69,6.59-.53,14.53-3.8,19.06C70.68,146,63.8,147.48,58,146.46c-6.49-1.15-11.77-5.57-12.89-11.57-1.64-8.72.37-20.55,11.56-26.12C66.91,104,78.06,113.11,79.76,119.7ZM71.18,122c-.88-2.41-4.22-5-8.46-5a8.08,8.08,0,0,0-7.62,5c-1.69,3.94-2.4,9.36-.23,12.76C56.33,137,59.73,138.07,62,138c2.57-.05,5.67-.81,7.44-3.47C71.53,131.34,72.22,125.4,71.18,122Z"/><path class="cls-1" d="M151.55,128.41c.24-12,7.64-20.39,17.76-20.45,13-.07,19.13,10.21,19.13,17.23-.09,11.92-4.71,21.9-20.91,21A17.24,17.24,0,0,1,151.55,128.41Zm18.64,11.81c8,0,11-6.51,11.44-13s-2.74-9.32-5.6-11a10.39,10.39,0,0,0-12.73,1.9c-3.07,3.67-4.75,7.32-4.16,12C160,137,163.71,140.18,170.19,140.22Z"/><path class="cls-1" d="M130.09,136.27c-5.2,9.59-18.18,13.25-27.28,7.14a12.18,12.18,0,0,1-5.24-9.54c-.82-9.87,3.07-17.79,10.6-23.57,4.63-3.57,10.88-2.82,15.93-1,4.27,1.49,7,5.58,8.23,10.52C133.42,124.25,132,132.7,130.09,136.27ZM125.71,128c.82-3.56-.27-7.67-1.18-8.58a11,11,0,0,0-10.24-3.24c-2.9.48-5,2.94-6.48,5.28-2.27,3.64-3.21,6.81-1.66,11.54,1.06,3.2,2.89,4.92,5.64,5.55,4.64.33,6.84-.92,8.67-2.3A15.75,15.75,0,0,0,125.71,128Z"/></g></g></svg>